<?xml version="1.0" encoding="utf-8"?>
<!-- Generator: Adobe Illustrator 19.2.1, SVG Export Plug-In . SVG Version: 6.00 Build 0)  -->
<svg version="1.1" id="Layer_1" xmlns="http://www.w3.org/2000/svg" xmlns:xlink="http://www.w3.org/1999/xlink" x="0px" y="0px"
	 viewBox="0 0 510.3 469.2" style="enable-background:new 0 0 510.3 469.2;" xml:space="preserve">
<style type="text/css">
	.st0{fill:#FFFFFF;stroke:#5AAAFA;stroke-miterlimit:10;}
	.st1{fill:#345D7F;}
	.st2{fill:none;stroke:#5BA545;stroke-miterlimit:10;}
	.st3{fill:#FFFFFF;stroke:#5BA545;stroke-miterlimit:10;}
	.st4{fill:#FFFFFF;}
	.st5{fill:#5BA545;}
	.st6{fill:none;stroke:#5BA544;stroke-width:1.5;stroke-miterlimit:10;}
	.st7{fill:#5AA545;}
	.st8{fill:none;stroke:#345D7F;stroke-miterlimit:10;}
	.st9{fill:#FFFFFF;stroke:#345D7F;stroke-miterlimit:10;}
	.st10{fill:none;stroke:#5BA545;stroke-miterlimit:10;stroke-dasharray:1,4,1,4;}
	.st11{fill:none;stroke:#5BA545;stroke-miterlimit:10;stroke-dasharray:1,4,1,4,1,4;}
	.st12{fill:#5AAAFA;}
	.st13{fill:none;stroke:#5AAAFA;stroke-miterlimit:10;}
</style>
<polygon class="st0" points="267.6,121.2 233.2,61.6 267.6,2 336.4,2 370.8,61.6 336.4,121.2 "/>
<g>
	<g>
		<path class="st1" d="M191.5,90.6c-0.1-0.7-0.7-1.1-1.4-1.1c-1.2,0-1.7,1-1.7,2c0,1.1,0.5,2.1,1.7,2.1c0.9,0,1.4-0.6,1.4-1.4h0.7
			c-0.1,1.3-0.9,2-2.2,2c-1.5,0-2.3-1.1-2.3-2.6c0-1.5,0.8-2.6,2.4-2.6c1,0,1.9,0.6,2.1,1.6H191.5z"/>
		<path class="st1" d="M193,89.1h0.7v5H193V89.1z"/>
		<path class="st1" d="M196.3,89h0.5l-2.1,5.2h-0.5L196.3,89z"/>
		<path class="st1" d="M200.9,90.6c-0.1-0.7-0.7-1.1-1.4-1.1c-1.2,0-1.7,1-1.7,2c0,1.1,0.5,2.1,1.7,2.1c0.9,0,1.4-0.6,1.4-1.4h0.7
			c-0.1,1.3-0.9,2-2.2,2c-1.5,0-2.3-1.1-2.3-2.6c0-1.5,0.8-2.6,2.4-2.6c1,0,1.9,0.6,2.1,1.6H200.9z"/>
		<path class="st1" d="M202.5,89.1h1.7c1.5,0,2.4,0.8,2.4,2.4c0,1.7-0.7,2.6-2.4,2.6h-1.7V89.1z M203.2,93.6h1.1
			c0.5,0,1.7-0.1,1.7-2c0-1.2-0.4-1.9-1.7-1.9h-1.1V93.6z"/>
		<path class="st1" d="M209.4,89.1h2.2c1,0,1.5,0.5,1.5,1.5s-0.5,1.5-1.5,1.5H210v2h-0.7V89.1z M210,91.5h1.3c0.8,0,1.1-0.3,1.1-0.9
			s-0.3-0.9-1.1-0.9H210V91.5z"/>
		<path class="st1" d="M214.5,89.9h-0.6v-0.7h0.6V89.9z M213.9,90.5h0.6v3.6h-0.6V90.5z"/>
		<path class="st1" d="M215.4,90.5h0.6V91h0c0.2-0.4,0.7-0.6,1.2-0.6c1.1,0,1.7,0.9,1.7,1.9c0,1-0.5,1.9-1.7,1.9
			c-0.4,0-0.9-0.1-1.2-0.6h0v1.9h-0.6V90.5z M217.1,91c-0.8,0-1.1,0.7-1.1,1.4c0,0.7,0.3,1.4,1.1,1.4c0.8,0,1.1-0.7,1.1-1.4
			C218.2,91.6,217.9,91,217.1,91z"/>
		<path class="st1" d="M222.7,93c-0.2,0.8-0.7,1.2-1.5,1.2c-1.2,0-1.7-0.8-1.7-1.9c0-1.1,0.7-1.9,1.7-1.9c1.3,0,1.7,1.2,1.6,2.1
			h-2.7c0,0.6,0.3,1.2,1.1,1.2c0.5,0,0.8-0.2,0.9-0.7H222.7z M222.2,92c0-0.6-0.4-1-1-1c-0.6,0-1,0.5-1,1H222.2z"/>
		<path class="st1" d="M223.6,89.1h0.6v5h-0.6V89.1z"/>
		<path class="st1" d="M225.7,89.9h-0.6v-0.7h0.6V89.9z M225.1,90.5h0.6v3.6h-0.6V90.5z"/>
		<path class="st1" d="M226.7,90.5h0.6v0.6h0c0.3-0.4,0.7-0.7,1.2-0.7c1,0,1.2,0.5,1.2,1.3v2.4h-0.6v-2.5c0-0.4-0.3-0.7-0.7-0.7
			c-0.7,0-1.1,0.5-1.1,1.1v2h-0.6V90.5z"/>
		<path class="st1" d="M233.7,93c-0.2,0.8-0.7,1.2-1.5,1.2c-1.2,0-1.7-0.8-1.7-1.9c0-1.1,0.7-1.9,1.7-1.9c1.3,0,1.7,1.2,1.6,2.1H231
			c0,0.6,0.3,1.2,1.1,1.2c0.5,0,0.8-0.2,0.9-0.7H233.7z M233.1,92c0-0.6-0.4-1-1-1c-0.6,0-1,0.5-1,1H233.1z"/>
		<path class="st1" d="M187,97.6c-0.1-0.7-0.5-1-1.2-1c-0.6,0-1.1,0.2-1.1,0.9c0,1.2,3.2,0.4,3.2,2.3c0,1.1-1,1.5-2,1.5
			c-1.1,0-2.1-0.6-2.1-1.8h0.6c0,0.8,0.7,1.2,1.5,1.2c0.6,0,1.3-0.2,1.3-0.9c0-1.4-3.2-0.5-3.2-2.3c0-1,0.9-1.5,1.8-1.5
			c1,0,1.8,0.5,1.8,1.6H187z"/>
		<path class="st1" d="M190.2,97.4c1.1,0,1.8,0.8,1.8,1.9c0,1.1-0.6,1.9-1.8,1.9c-1.1,0-1.8-0.8-1.8-1.9
			C188.5,98.3,189.1,97.4,190.2,97.4z M190.2,100.7c0.6,0,1.1-0.5,1.1-1.4s-0.5-1.4-1.1-1.4c-0.6,0-1.1,0.5-1.1,1.4
			S189.6,100.7,190.2,100.7z"/>
		<path class="st1" d="M192.9,98h-0.6v-0.5h0.6V97c0-0.6,0.4-0.9,1-0.9c0.1,0,0.3,0,0.4,0.1v0.5c-0.1,0-0.2,0-0.3,0
			c-0.3,0-0.5,0.1-0.5,0.4v0.5h0.7V98h-0.7v3.1h-0.6V98z"/>
		<path class="st1" d="M196,97.5h0.7V98H196v2.2c0,0.3,0.1,0.3,0.4,0.3h0.3v0.5h-0.5c-0.6,0-0.9-0.1-0.9-0.8V98h-0.6v-0.5h0.6v-1.1
			h0.6V97.5z"/>
		<path class="st1" d="M197.6,96.1h0.7v4.4h2.6v0.6h-3.3V96.1z"/>
		<path class="st1" d="M205,101.1c-0.1,0.1-0.3,0.1-0.4,0.1c-0.3,0-0.5-0.2-0.5-0.6c-0.3,0.4-0.8,0.6-1.3,0.6c-0.7,0-1.2-0.3-1.2-1
			c0-0.8,0.6-1,1.2-1.1c0.7-0.1,1.2-0.1,1.2-0.5c0-0.5-0.4-0.6-0.8-0.6c-0.5,0-0.9,0.2-0.9,0.7h-0.6c0-0.9,0.7-1.2,1.5-1.2
			c0.7,0,1.4,0.1,1.4,1v1.9c0,0.3,0,0.4,0.2,0.4c0.1,0,0.1,0,0.2,0V101.1z M204.1,99.3c-0.5,0.3-1.8,0-1.8,0.9
			c0,0.4,0.3,0.5,0.7,0.5c0.8,0,1.1-0.5,1.1-0.8V99.3z"/>
		<path class="st1" d="M207,101.6c-0.3,0.7-0.5,1-1.1,1c-0.1,0-0.3,0-0.4-0.1V102c0.1,0,0.2,0.1,0.3,0.1c0.2,0,0.4-0.1,0.5-0.3
			l0.2-0.6l-1.4-3.6h0.7l1.1,3h0l1-3h0.6L207,101.6z"/>
		<path class="st1" d="M212.1,100c-0.2,0.8-0.7,1.2-1.5,1.2c-1.2,0-1.7-0.8-1.7-1.9c0-1.1,0.7-1.9,1.7-1.9c1.3,0,1.7,1.2,1.6,2.1
			h-2.7c0,0.6,0.3,1.2,1.1,1.2c0.5,0,0.8-0.2,0.9-0.7H212.1z M211.5,99c0-0.6-0.4-1-1-1c-0.6,0-1,0.5-1,1H211.5z"/>
		<path class="st1" d="M212.9,97.5h0.6v0.8h0c0.3-0.6,0.7-0.9,1.3-0.8v0.6c-1,0-1.3,0.5-1.3,1.5v1.6h-0.6V97.5z"/>
		<path class="st1" d="M220.2,97.6c-0.1-0.7-0.5-1-1.2-1c-0.6,0-1.1,0.2-1.1,0.9c0,1.2,3.2,0.4,3.2,2.3c0,1.1-1,1.5-2,1.5
			c-1.1,0-2.1-0.6-2.1-1.8h0.6c0,0.8,0.7,1.2,1.5,1.2c0.6,0,1.3-0.2,1.3-0.9c0-1.4-3.2-0.5-3.2-2.3c0-1,0.9-1.5,1.8-1.5
			c1,0,1.8,0.5,1.8,1.6H220.2z"/>
		<path class="st1" d="M225,100c-0.2,0.8-0.7,1.2-1.5,1.2c-1.2,0-1.7-0.8-1.7-1.9c0-1.1,0.7-1.9,1.7-1.9c1.3,0,1.7,1.2,1.6,2.1h-2.7
			c0,0.6,0.3,1.2,1.1,1.2c0.5,0,0.8-0.2,0.9-0.7H225z M224.4,99c0-0.6-0.4-1-1-1c-0.6,0-1,0.5-1,1H224.4z"/>
		<path class="st1" d="M225.8,97.5h0.6v0.8h0c0.3-0.6,0.7-0.9,1.3-0.8v0.6c-1,0-1.3,0.5-1.3,1.5v1.6h-0.6V97.5z"/>
		<path class="st1" d="M230.3,101.1h-0.6l-1.3-3.6h0.7l1,3h0l1-3h0.6L230.3,101.1z"/>
		<path class="st1" d="M235.1,100c-0.2,0.8-0.7,1.2-1.5,1.2c-1.2,0-1.7-0.8-1.7-1.9c0-1.1,0.7-1.9,1.7-1.9c1.3,0,1.7,1.2,1.6,2.1
			h-2.7c0,0.6,0.3,1.2,1.1,1.2c0.5,0,0.8-0.2,0.9-0.7H235.1z M234.5,99c0-0.6-0.4-1-1-1c-0.6,0-1,0.5-1,1H234.5z"/>
		<path class="st1" d="M235.9,97.5h0.6v0.8h0c0.3-0.6,0.7-0.9,1.3-0.8v0.6c-1,0-1.3,0.5-1.3,1.5v1.6h-0.6V97.5z"/>
	</g>
</g>
<g>
	<polygon class="st2" points="169.6,454.3 119.6,454.3 119.6,395.3 141,389.9 169.6,396 	"/>
	<line class="st3" x1="141.4" y1="390" x2="170" y2="454.9"/>
	<g>
		<line class="st4" x1="149.6" y1="397.9" x2="166.3" y2="401.2"/>
		<polygon class="st5" points="166.1,401.7 150,398.5 149.6,397.4 166.1,400.7 		"/>
	</g>
	<g>
		<path class="st4" d="M149.6,402.9"/>
		<polygon class="st5" points="166.1,406.7 151.8,403.8 151.5,402.6 166.1,405.7 		"/>
	</g>
</g>
<g>
	<polygon class="st2" points="240.6,454.3 190.6,454.3 190.6,395.3 212,389.9 240.6,396 	"/>
	<line class="st3" x1="212.4" y1="390" x2="241" y2="454.9"/>
	<g>
		<line class="st4" x1="220.6" y1="397.9" x2="237.3" y2="401.2"/>
		<polygon class="st5" points="237.1,401.7 221,398.5 220.6,397.4 237.1,400.7 		"/>
	</g>
	<g>
		<path class="st4" d="M220.6,402.9"/>
		<polygon class="st5" points="237.1,406.7 222.8,403.8 222.5,402.6 237.1,405.7 		"/>
	</g>
</g>
<g>
	<polygon class="st2" points="312.6,454.3 262.6,454.3 262.6,395.3 284,389.9 312.6,396 	"/>
	<line class="st3" x1="284.6" y1="390" x2="313.3" y2="454.9"/>
	<g>
		<line class="st4" x1="292.9" y1="397.9" x2="309.6" y2="401.2"/>
		<polygon class="st5" points="309.1,401.7 293.1,398.5 292.7,397.4 309.1,400.7 		"/>
	</g>
	<g>
		<path class="st4" d="M292.9,402.9"/>
		<polygon class="st5" points="309.1,406.7 295,403.8 294.6,402.6 309.1,405.7 		"/>
	</g>
</g>
<g>
	<polygon class="st2" points="384.6,454.3 334.6,454.3 334.6,395.3 356,389.9 384.6,396 	"/>
	<line class="st3" x1="356.4" y1="390" x2="385" y2="454.9"/>
	<g>
		<line class="st4" x1="364.6" y1="397.9" x2="381.3" y2="401.2"/>
		<polygon class="st5" points="381.1,401.7 365,398.5 364.6,397.4 381.1,400.7 		"/>
	</g>
	<g>
		<path class="st4" d="M364.6,402.9"/>
		<polygon class="st5" points="381.1,406.7 366.8,403.8 366.5,402.6 381.1,405.7 		"/>
	</g>
</g>
<g>
	<g>
		<g>
			<g>
				<g>
					<line class="st6" x1="165.4" y1="185.7" x2="161.8" y2="191.4"/>
				</g>
				<g>
					<line class="st6" x1="160.5" y1="185.7" x2="156.9" y2="191.4"/>
				</g>
				<g>
					<line class="st6" x1="155.6" y1="185.7" x2="152" y2="191.4"/>
				</g>
				<g>
					<line class="st6" x1="150.7" y1="185.7" x2="147.1" y2="191.4"/>
				</g>
				<g>
					<line class="st6" x1="145.9" y1="185.7" x2="142.3" y2="191.4"/>
				</g>
				<g>
					<line class="st6" x1="141" y1="185.7" x2="137.4" y2="191.4"/>
				</g>
				<g>
					<line class="st6" x1="136.1" y1="185.7" x2="132.5" y2="191.4"/>
				</g>
				<g>
					<line class="st6" x1="131.2" y1="185.7" x2="127.6" y2="191.4"/>
				</g>
				<g>
					<line class="st6" x1="126.4" y1="185.7" x2="122.8" y2="191.4"/>
				</g>
				<g>
					<line class="st6" x1="121.5" y1="185.7" x2="117.9" y2="191.4"/>
				</g>
				<g>
					<line class="st6" x1="116.6" y1="185.7" x2="113" y2="191.4"/>
				</g>
				<g>
					<line class="st6" x1="111.7" y1="185.7" x2="108.1" y2="191.4"/>
				</g>
				<g>
					<line class="st6" x1="106.9" y1="185.7" x2="103.3" y2="191.4"/>
				</g>
				<g>
					<line class="st6" x1="102" y1="185.7" x2="98.4" y2="191.4"/>
				</g>
				<g>
					<line class="st6" x1="97.1" y1="185.7" x2="93.5" y2="191.4"/>
				</g>
				<g>
					<line class="st6" x1="92.2" y1="185.7" x2="88.6" y2="191.4"/>
				</g>
				<g>
					<line class="st6" x1="87.4" y1="185.7" x2="83.8" y2="191.4"/>
				</g>
				<g>
					<line class="st6" x1="82.5" y1="185.7" x2="78.9" y2="191.4"/>
				</g>
				<g>
					<line class="st6" x1="77.6" y1="185.7" x2="74" y2="191.4"/>
				</g>
				<g>
					<line class="st6" x1="72.7" y1="185.7" x2="69.1" y2="191.4"/>
				</g>
				<g>
					<line class="st6" x1="67.9" y1="185.7" x2="64.3" y2="191.4"/>
				</g>
				<g>
					<line class="st6" x1="63" y1="185.7" x2="59.4" y2="191.4"/>
				</g>
				<g>
					<line class="st6" x1="58.1" y1="185.7" x2="54.5" y2="191.4"/>
				</g>
				<g>
					<line class="st6" x1="53.3" y1="185.7" x2="49.6" y2="191.4"/>
				</g>
				<g>
					<line class="st6" x1="48.4" y1="185.7" x2="44.8" y2="191.4"/>
				</g>
				<g>
					<line class="st6" x1="43.5" y1="185.7" x2="39.9" y2="191.4"/>
				</g>
				<g>
					<line class="st6" x1="38.6" y1="185.7" x2="35" y2="191.4"/>
				</g>
				<g>
					<line class="st6" x1="33.8" y1="185.7" x2="30.2" y2="191.4"/>
				</g>
				<g>
					<line class="st6" x1="28.9" y1="185.7" x2="25.3" y2="191.4"/>
				</g>
				<g>
					<line class="st6" x1="24" y1="185.7" x2="20.4" y2="191.4"/>
				</g>
				<g>
					<line class="st6" x1="19.1" y1="185.7" x2="15.5" y2="191.4"/>
				</g>
				<g>
					<line class="st6" x1="14.3" y1="185.7" x2="10.7" y2="191.4"/>
				</g>
				<g>
					<line class="st6" x1="9.4" y1="185.7" x2="5.8" y2="191.4"/>
				</g>
				<g>
					<line class="st6" x1="4.5" y1="185.7" x2="0.9" y2="191.4"/>
				</g>
			</g>
		</g>
	</g>
</g>
<g>
	<g>
		<g>
			<g>
				<g>
					<line class="st6" x1="510.3" y1="185.8" x2="506.7" y2="191.6"/>
				</g>
				<g>
					<line class="st6" x1="505.4" y1="185.8" x2="501.8" y2="191.6"/>
				</g>
				<g>
					<line class="st6" x1="500.6" y1="185.8" x2="497" y2="191.6"/>
				</g>
				<g>
					<line class="st6" x1="495.7" y1="185.8" x2="492.1" y2="191.6"/>
				</g>
				<g>
					<line class="st6" x1="490.8" y1="185.8" x2="487.2" y2="191.6"/>
				</g>
				<g>
					<line class="st6" x1="486" y1="185.8" x2="482.4" y2="191.6"/>
				</g>
				<g>
					<line class="st6" x1="481.1" y1="185.8" x2="477.5" y2="191.6"/>
				</g>
				<g>
					<line class="st6" x1="476.2" y1="185.8" x2="472.6" y2="191.6"/>
				</g>
				<g>
					<line class="st6" x1="471.3" y1="185.8" x2="467.7" y2="191.6"/>
				</g>
				<g>
					<line class="st6" x1="466.5" y1="185.8" x2="462.9" y2="191.6"/>
				</g>
				<g>
					<line class="st6" x1="461.6" y1="185.8" x2="458" y2="191.6"/>
				</g>
				<g>
					<line class="st6" x1="456.7" y1="185.8" x2="453.1" y2="191.6"/>
				</g>
				<g>
					<line class="st6" x1="451.9" y1="185.8" x2="448.3" y2="191.6"/>
				</g>
				<g>
					<line class="st6" x1="447" y1="185.8" x2="443.4" y2="191.6"/>
				</g>
				<g>
					<line class="st6" x1="442.1" y1="185.8" x2="438.5" y2="191.6"/>
				</g>
				<g>
					<line class="st6" x1="437.2" y1="185.8" x2="433.6" y2="191.6"/>
				</g>
				<g>
					<line class="st6" x1="432.4" y1="185.8" x2="428.8" y2="191.6"/>
				</g>
				<g>
					<line class="st6" x1="427.5" y1="185.8" x2="423.9" y2="191.6"/>
				</g>
				<g>
					<line class="st6" x1="422.6" y1="185.8" x2="419" y2="191.6"/>
				</g>
				<g>
					<line class="st6" x1="417.8" y1="185.8" x2="414.2" y2="191.6"/>
				</g>
				<g>
					<line class="st6" x1="412.9" y1="185.8" x2="409.3" y2="191.6"/>
				</g>
				<g>
					<line class="st6" x1="408" y1="185.8" x2="404.4" y2="191.6"/>
				</g>
				<g>
					<line class="st6" x1="403.2" y1="185.8" x2="399.6" y2="191.6"/>
				</g>
				<g>
					<line class="st6" x1="398.3" y1="185.8" x2="394.7" y2="191.6"/>
				</g>
				<g>
					<line class="st6" x1="393.4" y1="185.8" x2="389.8" y2="191.6"/>
				</g>
				<g>
					<line class="st6" x1="388.5" y1="185.8" x2="384.9" y2="191.6"/>
				</g>
				<g>
					<line class="st6" x1="383.7" y1="185.8" x2="380.1" y2="191.6"/>
				</g>
				<g>
					<line class="st6" x1="378.8" y1="185.8" x2="375.2" y2="191.6"/>
				</g>
				<g>
					<line class="st6" x1="373.9" y1="185.8" x2="370.3" y2="191.6"/>
				</g>
				<g>
					<line class="st6" x1="369.1" y1="185.8" x2="365.5" y2="191.6"/>
				</g>
				<g>
					<line class="st6" x1="364.2" y1="185.8" x2="360.6" y2="191.6"/>
				</g>
				<g>
					<line class="st6" x1="359.3" y1="185.8" x2="355.7" y2="191.6"/>
				</g>
				<g>
					<line class="st6" x1="354.4" y1="185.8" x2="350.8" y2="191.6"/>
				</g>
				<g>
					<line class="st6" x1="349.6" y1="185.8" x2="346" y2="191.6"/>
				</g>
				<g>
					<line class="st6" x1="344.7" y1="185.8" x2="341.1" y2="191.6"/>
				</g>
				<g>
					<line class="st6" x1="339.8" y1="185.8" x2="336.2" y2="191.6"/>
				</g>
				<g>
					<line class="st6" x1="335" y1="185.8" x2="331.4" y2="191.6"/>
				</g>
				<g>
					<line class="st6" x1="330.1" y1="185.8" x2="326.5" y2="191.6"/>
				</g>
				<g>
					<line class="st6" x1="325.2" y1="185.8" x2="321.6" y2="191.6"/>
				</g>
				<g>
					<line class="st6" x1="320.3" y1="185.8" x2="316.7" y2="191.6"/>
				</g>
				<g>
					<line class="st6" x1="315.5" y1="185.8" x2="311.9" y2="191.6"/>
				</g>
			</g>
		</g>
	</g>
</g>
<g>
	<g>
		<path class="st1" d="M153.7,77.8c-4,0-7.7-1.6-10.4-4.5c-0.1-0.1-0.1-0.2-0.1-0.3c-0.1-0.5-0.1-1-0.1-1.5c0-3.7,1.8-7,4.9-9
			c0.2-0.2,0.6-0.1,0.7,0.2c0.2,0.2,0.1,0.6-0.2,0.7c-2.8,1.8-4.5,4.8-4.5,8.1c0,0.4,0,0.8,0.1,1.2c2.5,2.6,5.9,4,9.5,4
			c3.6,0,7-1.4,9.5-4c0.1-0.4,0.1-0.8,0.1-1.2c0-4.5-3-8.3-7.4-9.3c-0.2-0.1-0.4-0.2-0.4-0.4c0-0.2,0.1-0.4,0.3-0.5
			c1.7-0.8,2.7-2.5,2.7-4.4c0-2.7-2.2-4.9-4.9-4.9c-2.7,0-4.9,2.2-4.9,4.9c0,1.9,1,3.5,2.7,4.4c0.3,0.1,0.4,0.4,0.2,0.7
			c-0.1,0.3-0.4,0.4-0.7,0.2c-2-1-3.3-3-3.3-5.3c0-3.3,2.6-5.9,5.9-5.9c3.3,0,5.9,2.6,5.9,5.9c0,1.9-0.9,3.6-2.3,4.7
			c4.2,1.5,7,5.5,7,10c0,0.5,0,1-0.1,1.5c0,0.1-0.1,0.2-0.1,0.3C161.4,76.2,157.7,77.8,153.7,77.8z"/>
	</g>
	<g>
		<path class="st1" d="M163.9,70.2c-0.2,0-0.4-0.2-0.5-0.4c-0.1-0.3,0.1-0.6,0.4-0.6c2.2-0.5,4.1-1.6,5.7-3.2c0-0.4,0.1-0.7,0.1-1.1
			c0-4-2.7-7.4-6.5-8.3c-0.2-0.1-0.4-0.2-0.4-0.4c0-0.2,0.1-0.4,0.3-0.5c1.5-0.7,2.4-2.2,2.4-3.9c0-2.4-1.9-4.3-4.3-4.3
			c-2.4,0-4.3,1.9-4.3,4.3c0,0.3-0.2,0.5-0.5,0.5c-0.3,0-0.5-0.2-0.5-0.5c0-2.9,2.4-5.3,5.3-5.3c2.9,0,5.3,2.4,5.3,5.3
			c0,1.6-0.7,3.2-2,4.2c3.7,1.4,6.2,4.9,6.2,9c0,0.4,0,0.9-0.1,1.4c0,0.1-0.1,0.2-0.1,0.3c-1.7,1.8-3.9,3.1-6.3,3.7
			C164,70.2,163.9,70.2,163.9,70.2z"/>
	</g>
	<g>
		<path class="st1" d="M143.7,70.3c0,0-0.1,0-0.1,0c-2.5-0.6-4.7-1.8-6.5-3.7c-0.1-0.1-0.1-0.2-0.1-0.3c-0.1-0.5-0.1-0.9-0.1-1.4
			c0-4.1,2.5-7.6,6.2-9c-1.2-1-2-2.5-2-4.2c0-2.9,2.4-5.3,5.3-5.3c2.9,0,5.3,2.4,5.3,5.3c0,0.3-0.2,0.5-0.5,0.5
			c-0.3,0-0.5-0.2-0.5-0.5c0-2.4-1.9-4.3-4.3-4.3c-2.4,0-4.3,1.9-4.3,4.3c0,1.7,0.9,3.1,2.4,3.9c0.2,0.1,0.3,0.3,0.3,0.5
			c0,0.2-0.2,0.4-0.4,0.4c-3.8,0.9-6.5,4.3-6.5,8.3c0,0.3,0,0.7,0.1,1.1c1.6,1.6,3.6,2.8,5.8,3.3c0.3,0.1,0.5,0.3,0.4,0.6
			C144.1,70.1,143.9,70.3,143.7,70.3z"/>
	</g>
</g>
<polygon class="st2" points="406.9,375.4 406.9,258 319.8,258 313.5,270.2 99.4,270.2 99.4,375.4 "/>
<line class="st3" x1="299.6" y1="121.2" x2="299.6" y2="269.8"/>
<g>
	<g>
		<path class="st7" d="M98.9,241.5c-0.1-0.7-0.7-1.1-1.4-1.1c-1.2,0-1.7,1-1.7,2c0,1.1,0.5,2.1,1.7,2.1c0.9,0,1.4-0.6,1.4-1.4h0.7
			c-0.1,1.3-0.9,2-2.2,2c-1.5,0-2.3-1.1-2.3-2.6c0-1.5,0.8-2.6,2.4-2.6c1,0,1.9,0.6,2.1,1.6H98.9z"/>
		<path class="st7" d="M103.5,245H103v-0.6h0c-0.3,0.4-0.7,0.7-1.2,0.7c-1,0-1.2-0.5-1.2-1.3v-2.4h0.6v2.5c0,0.4,0.3,0.7,0.7,0.7
			c0.7,0,1.1-0.5,1.1-1.1v-2h0.6V245z"/>
		<path class="st7" d="M105,243.8c0,0.5,0.5,0.7,1,0.7c0.4,0,0.9-0.1,0.9-0.5c0-0.9-2.4-0.3-2.4-1.7c0-0.7,0.7-1,1.4-1
			c0.8,0,1.4,0.3,1.5,1.1h-0.6c0-0.5-0.5-0.6-0.8-0.6c-0.4,0-0.8,0.1-0.8,0.5c0,0.4,0.6,0.5,1.2,0.6c0.6,0.1,1.2,0.3,1.2,1
			c0,0.9-0.8,1.1-1.5,1.1c-0.8,0-1.5-0.3-1.5-1.2H105z"/>
		<path class="st7" d="M109.2,241.4h0.7v0.5h-0.7v2.2c0,0.3,0.1,0.3,0.4,0.3h0.3v0.5h-0.5c-0.6,0-0.9-0.1-0.9-0.8v-2.3H108v-0.5h0.6
			v-1.1h0.6V241.4z"/>
		<path class="st7" d="M112.3,241.3c1.1,0,1.8,0.8,1.8,1.9c0,1.1-0.6,1.9-1.8,1.9s-1.8-0.8-1.8-1.9
			C110.5,242.1,111.1,241.3,112.3,241.3z M112.3,244.5c0.6,0,1.1-0.5,1.1-1.4s-0.5-1.4-1.1-1.4s-1.1,0.5-1.1,1.4
			S111.6,244.5,112.3,244.5z"/>
		<path class="st7" d="M115,241.4h0.6v0.5h0c0.3-0.4,0.7-0.6,1.2-0.6c0.4,0,0.8,0.2,1,0.6c0.2-0.4,0.7-0.6,1.1-0.6
			c0.7,0,1.2,0.3,1.2,1.1v2.7h-0.6v-2.4c0-0.4-0.1-0.8-0.7-0.8c-0.6,0-0.9,0.4-0.9,0.9v2.3h-0.6v-2.4c0-0.5-0.1-0.8-0.7-0.8
			c-0.7,0-1,0.6-1,0.9v2.3H115V241.4z"/>
		<path class="st7" d="M124.2,243.8c-0.2,0.8-0.7,1.2-1.5,1.2c-1.2,0-1.7-0.8-1.7-1.9c0-1.1,0.7-1.9,1.7-1.9c1.3,0,1.7,1.2,1.6,2.1
			h-2.7c0,0.6,0.3,1.2,1.1,1.2c0.5,0,0.8-0.2,0.9-0.7H124.2z M123.7,242.8c0-0.6-0.4-1-1-1c-0.6,0-1,0.5-1,1H123.7z"/>
		<path class="st7" d="M125.2,241.4h0.6v0.8h0c0.3-0.6,0.7-0.9,1.3-0.8v0.6c-1,0-1.3,0.5-1.3,1.5v1.6h-0.6V241.4z"/>
		<path class="st7" d="M130,240h1.7c1.5,0,2.4,0.8,2.4,2.4c0,1.7-0.7,2.6-2.4,2.6H130V240z M130.6,244.4h1.1c0.5,0,1.7-0.1,1.7-2
			c0-1.2-0.4-1.9-1.7-1.9h-1.1V244.4z"/>
		<path class="st7" d="M138.2,245c-0.1,0.1-0.3,0.1-0.4,0.1c-0.3,0-0.5-0.2-0.5-0.6c-0.3,0.4-0.8,0.6-1.3,0.6c-0.7,0-1.2-0.3-1.2-1
			c0-0.8,0.6-1,1.2-1.1c0.7-0.1,1.2-0.1,1.2-0.5c0-0.5-0.4-0.6-0.8-0.6c-0.5,0-0.9,0.2-0.9,0.7H135c0-0.9,0.7-1.2,1.5-1.2
			c0.7,0,1.4,0.1,1.4,1v1.9c0,0.3,0,0.4,0.2,0.4c0.1,0,0.1,0,0.2,0V245z M137.3,243.1c-0.5,0.3-1.8,0-1.8,0.9c0,0.4,0.3,0.5,0.7,0.5
			c0.8,0,1.1-0.5,1.1-0.8V243.1z"/>
		<path class="st7" d="M139.9,241.4h0.7v0.5h-0.7v2.2c0,0.3,0.1,0.3,0.4,0.3h0.3v0.5h-0.5c-0.6,0-0.9-0.1-0.9-0.8v-2.3h-0.6v-0.5
			h0.6v-1.1h0.6V241.4z"/>
		<path class="st7" d="M144.7,245c-0.1,0.1-0.3,0.1-0.4,0.1c-0.3,0-0.5-0.2-0.5-0.6c-0.3,0.4-0.8,0.6-1.3,0.6c-0.7,0-1.2-0.3-1.2-1
			c0-0.8,0.6-1,1.2-1.1c0.7-0.1,1.2-0.1,1.2-0.5c0-0.5-0.4-0.6-0.8-0.6c-0.5,0-0.9,0.2-0.9,0.7h-0.6c0-0.9,0.7-1.2,1.5-1.2
			c0.7,0,1.4,0.1,1.4,1v1.9c0,0.3,0,0.4,0.2,0.4c0.1,0,0.1,0,0.2,0V245z M143.7,243.1c-0.5,0.3-1.8,0-1.8,0.9c0,0.4,0.3,0.5,0.7,0.5
			c0.8,0,1.1-0.5,1.1-0.8V243.1z"/>
		<path class="st7" d="M151.2,241.5c-0.1-0.7-0.7-1.1-1.4-1.1c-1.2,0-1.7,1-1.7,2c0,1.1,0.5,2.1,1.7,2.1c0.9,0,1.4-0.6,1.4-1.4h0.7
			c-0.1,1.3-0.9,2-2.2,2c-1.5,0-2.3-1.1-2.3-2.6c0-1.5,0.8-2.6,2.4-2.6c1,0,1.9,0.6,2.1,1.6H151.2z"/>
		<path class="st7" d="M156,243.8c-0.2,0.8-0.7,1.2-1.5,1.2c-1.2,0-1.7-0.8-1.7-1.9c0-1.1,0.7-1.9,1.7-1.9c1.3,0,1.7,1.2,1.6,2.1
			h-2.7c0,0.6,0.3,1.2,1.1,1.2c0.5,0,0.8-0.2,0.9-0.7H156z M155.4,242.8c0-0.6-0.4-1-1-1c-0.6,0-1,0.5-1,1H155.4z"/>
		<path class="st7" d="M157,241.4h0.6v0.6h0c0.3-0.4,0.7-0.7,1.2-0.7c1,0,1.2,0.5,1.2,1.3v2.4h-0.6v-2.5c0-0.4-0.3-0.7-0.7-0.7
			c-0.7,0-1.1,0.5-1.1,1.1v2H157V241.4z"/>
		<path class="st7" d="M161.8,241.4h0.7v0.5h-0.7v2.2c0,0.3,0.1,0.3,0.4,0.3h0.3v0.5h-0.5c-0.6,0-0.9-0.1-0.9-0.8v-2.3h-0.6v-0.5
			h0.6v-1.1h0.6V241.4z"/>
		<path class="st7" d="M166.4,243.8c-0.2,0.8-0.7,1.2-1.5,1.2c-1.2,0-1.7-0.8-1.7-1.9c0-1.1,0.7-1.9,1.7-1.9c1.3,0,1.7,1.2,1.6,2.1
			h-2.7c0,0.6,0.3,1.2,1.1,1.2c0.5,0,0.8-0.2,0.9-0.7H166.4z M165.8,242.8c0-0.6-0.4-1-1-1c-0.6,0-1,0.5-1,1H165.8z"/>
		<path class="st7" d="M167.4,241.4h0.6v0.8h0c0.3-0.6,0.7-0.9,1.3-0.8v0.6c-1,0-1.3,0.5-1.3,1.5v1.6h-0.6V241.4z"/>
	</g>
</g>
<g>
	<g>
		<path class="st1" d="M147.6,99c-0.4,0.5-1,0.7-1.6,0.7c-1.5,0-2.4-1.2-2.4-2.5c0-1.5,0.8-2.7,2.4-2.7c1.1,0,2,0.5,2.2,1.7h-0.7
			c-0.1-0.8-0.7-1.1-1.5-1.1c-1.2,0-1.7,1.1-1.7,2.1c0,1,0.6,2,1.7,2c1,0,1.6-0.7,1.6-1.6H146v-0.6h2.2v2.6h-0.4L147.6,99z"/>
		<path class="st1" d="M149.2,94.6h0.6v5h-0.6V94.6z"/>
		<path class="st1" d="M152.3,95.9c1.1,0,1.8,0.8,1.8,1.9c0,1.1-0.6,1.9-1.8,1.9c-1.1,0-1.8-0.8-1.8-1.9
			C150.6,96.7,151.2,95.9,152.3,95.9z M152.3,99.1c0.6,0,1.1-0.5,1.1-1.4s-0.5-1.4-1.1-1.4c-0.6,0-1.1,0.5-1.1,1.4
			S151.7,99.1,152.3,99.1z"/>
		<path class="st1" d="M154.9,94.6h0.6v1.9h0c0.2-0.4,0.7-0.6,1.2-0.6c1.1,0,1.7,0.9,1.7,1.9c0,1-0.5,1.9-1.7,1.9
			c-0.4,0-0.9-0.1-1.2-0.6h0v0.5h-0.6V94.6z M156.5,96.4c-0.8,0-1.1,0.7-1.1,1.4c0,0.7,0.3,1.4,1.1,1.4c0.8,0,1.1-0.7,1.1-1.4
			C157.7,97.1,157.3,96.4,156.5,96.4z"/>
		<path class="st1" d="M162.3,99.6c-0.1,0.1-0.3,0.1-0.4,0.1c-0.3,0-0.5-0.2-0.5-0.6c-0.3,0.4-0.8,0.6-1.3,0.6c-0.7,0-1.2-0.3-1.2-1
			c0-0.8,0.6-1,1.2-1.1c0.7-0.1,1.2-0.1,1.2-0.5c0-0.5-0.4-0.6-0.8-0.6c-0.5,0-0.9,0.2-0.9,0.7H159c0-0.9,0.7-1.2,1.5-1.2
			c0.7,0,1.4,0.1,1.4,1v1.9c0,0.3,0,0.4,0.2,0.4c0.1,0,0.1,0,0.2,0V99.6z M161.3,97.7c-0.5,0.3-1.8,0-1.8,0.9c0,0.4,0.3,0.5,0.7,0.5
			c0.8,0,1.1-0.5,1.1-0.8V97.7z"/>
		<path class="st1" d="M163,94.6h0.6v5H163V94.6z"/>
		<path class="st1" d="M138.7,101.5c1.6,0,2.4,1.3,2.4,2.6s-0.8,2.6-2.4,2.6s-2.4-1.3-2.4-2.6S137.1,101.5,138.7,101.5z
			 M138.7,106.1c1.2,0,1.7-1.1,1.7-2.1c0-1-0.5-2.1-1.7-2.1c-1.2,0-1.7,1.1-1.7,2.1C137,105.1,137.5,106.1,138.7,106.1z"/>
		<path class="st1" d="M141.9,103h0.6v0.5h0c0.2-0.4,0.7-0.6,1.2-0.6c1.1,0,1.7,0.9,1.7,1.9c0,1-0.5,1.9-1.7,1.9
			c-0.4,0-0.9-0.1-1.2-0.6h0v1.9h-0.6V103z M143.6,103.4c-0.8,0-1.1,0.7-1.1,1.4c0,0.7,0.3,1.4,1.1,1.4c0.8,0,1.1-0.7,1.1-1.4
			C144.7,104.1,144.3,103.4,143.6,103.4z"/>
		<path class="st1" d="M149.2,105.4c-0.2,0.8-0.7,1.2-1.5,1.2c-1.2,0-1.7-0.8-1.7-1.9c0-1.1,0.7-1.9,1.7-1.9c1.3,0,1.7,1.2,1.6,2.1
			h-2.7c0,0.6,0.3,1.2,1.1,1.2c0.5,0,0.8-0.2,0.9-0.7H149.2z M148.7,104.4c0-0.6-0.4-1-1-1c-0.6,0-1,0.5-1,1H148.7z"/>
		<path class="st1" d="M150.1,103h0.6v0.8h0c0.3-0.6,0.7-0.9,1.3-0.8v0.6c-1,0-1.3,0.5-1.3,1.5v1.6h-0.6V103z"/>
		<path class="st1" d="M155.7,106.6c-0.1,0.1-0.3,0.1-0.4,0.1c-0.3,0-0.5-0.2-0.5-0.6c-0.3,0.4-0.8,0.6-1.3,0.6
			c-0.7,0-1.2-0.3-1.2-1c0-0.8,0.6-1,1.2-1.1c0.7-0.1,1.2-0.1,1.2-0.5c0-0.5-0.4-0.6-0.8-0.6c-0.5,0-0.9,0.2-0.9,0.7h-0.6
			c0-0.9,0.7-1.2,1.5-1.2c0.7,0,1.4,0.1,1.4,1v1.9c0,0.3,0,0.4,0.2,0.4c0.1,0,0.1,0,0.2,0V106.6z M154.7,104.7
			c-0.5,0.3-1.8,0-1.8,0.9c0,0.4,0.3,0.5,0.7,0.5c0.8,0,1.1-0.5,1.1-0.8V104.7z"/>
		<path class="st1" d="M157.2,103h0.7v0.5h-0.7v2.2c0,0.3,0.1,0.3,0.4,0.3h0.3v0.5h-0.5c-0.6,0-0.9-0.1-0.9-0.8v-2.3H156V103h0.6
			v-1.1h0.6V103z"/>
		<path class="st1" d="M159.3,102.3h-0.6v-0.7h0.6V102.3z M158.7,103h0.6v3.6h-0.6V103z"/>
		<path class="st1" d="M161.8,102.9c1.1,0,1.8,0.8,1.8,1.9c0,1.1-0.6,1.9-1.8,1.9c-1.1,0-1.8-0.8-1.8-1.9
			C160,103.7,160.6,102.9,161.8,102.9z M161.8,106.1c0.6,0,1.1-0.5,1.1-1.4s-0.5-1.4-1.1-1.4c-0.6,0-1.1,0.5-1.1,1.4
			S161.2,106.1,161.8,106.1z"/>
		<path class="st1" d="M164.3,103h0.6v0.6h0c0.3-0.4,0.7-0.7,1.2-0.7c1,0,1.2,0.5,1.2,1.3v2.4h-0.6v-2.5c0-0.4-0.3-0.7-0.7-0.7
			c-0.7,0-1.1,0.5-1.1,1.1v2h-0.6V103z"/>
		<path class="st1" d="M168.6,105.4c0,0.5,0.5,0.7,1,0.7c0.4,0,0.9-0.1,0.9-0.5c0-0.9-2.4-0.3-2.4-1.7c0-0.7,0.7-1,1.4-1
			c0.8,0,1.4,0.3,1.5,1.1h-0.6c0-0.5-0.5-0.6-0.8-0.6c-0.4,0-0.8,0.1-0.8,0.5c0,0.4,0.6,0.5,1.2,0.6c0.6,0.1,1.2,0.3,1.2,1
			c0,0.9-0.8,1.1-1.5,1.1c-0.8,0-1.5-0.3-1.5-1.2H168.6z"/>
	</g>
</g>
<polygon class="st8" points="136.2,90.8 118.7,60.5 136.2,30.2 171.2,30.2 188.6,60.5 171.2,90.8 "/>
<polygon class="st8" points="193.2,124.4 175.7,94.1 193.2,63.9 228.2,63.9 245.6,94.1 228.2,124.4 "/>
<circle class="st9" cx="173.2" cy="28.6" r="12.6"/>
<path class="st1" d="M173.2,35.5h3.9c0.1,0,0.1,0,0.2-0.1l1.9-3.3c0,0,0-0.1,0-0.1c0,0,0-0.1,0-0.1l-1.9-3.2l1.9-3.2
	c0,0,0-0.1,0-0.1c0,0,0-0.1,0-0.1l-1.9-3.3c0-0.1-0.1-0.1-0.2-0.1h-3.9c-0.1,0-0.1,0-0.2,0.1l-1.9,3.2h-3.8c-0.1,0-0.1,0-0.2,0.1
	l-1.9,3.3c0,0.1,0,0.1,0,0.2l1.9,3.3c0,0.1,0.1,0.1,0.2,0.1h3.8l1.9,3.2C173,35.4,173.1,35.5,173.2,35.5z M176.7,28.4h-3.4l-0.1-0.1
	l-1.6-2.8h3.4L176.7,28.4z M171.2,31.6l-1.7-2.9l1.7-2.9l1.7,2.9L171.2,31.6z M176.7,28.8l-1.7,2.9h-3.4l1.6-2.8l0.1-0.1H176.7z
	 M167.5,25.5h3.4l-1.8,3c0,0.1,0,0.1,0,0.2l1.8,3h-3.4l-1.8-3.1L167.5,25.5z M177.1,28.2l-1.8-3c0-0.1-0.1-0.1-0.2-0.1h-3.5l1.7-2.9
	h3.6l1.8,3.1L177.1,28.2z M173.3,35.1l-1.7-2.9h3.5c0.1,0,0.1,0,0.2-0.1l1.8-3l1.7,2.9l-1.8,3.1H173.3z"/>
<g>
	<g>
		<polygon class="st4" points="294.8,196.5 290.3,188.7 294.8,180.9 303.9,180.9 308.4,188.7 303.9,196.5 		"/>
		<path class="st5" d="M303.6,181.4l4.2,7.3l-4.2,7.3h-8.5l-4.2-7.3l4.2-7.3H303.6 M304.2,180.4h-9.6l-4.8,8.3l4.8,8.3h9.6l4.8-8.3
			L304.2,180.4L304.2,180.4z"/>
	</g>
	<path class="st5" d="M302.4,187.6h-0.3v-0.8c0-1.5-1.2-2.7-2.7-2.7c-1.5,0-2.7,1.2-2.7,2.7v0.8h-0.4c-0.2,0-0.4,0.2-0.4,0.4v4.4
		c0,0.2,0.2,0.4,0.4,0.4h6.2c0.2,0,0.4-0.2,0.4-0.4V188C302.9,187.8,302.7,187.6,302.4,187.6z M297.5,186.8c0-1,0.8-1.8,1.8-1.8
		s1.8,0.8,1.8,1.8v0.8h-3.7V186.8z M302,192h-5.3v-3.5h0.4h4.6h0.3V192z"/>
</g>
<g>
	<g>
		<path class="st7" d="M348.6,266.3h1.8c0.4,0,1,0,1.3,0.2c0.3,0.2,0.6,0.5,0.6,1c0,0.5-0.3,0.9-0.7,1.1v0c0.6,0.1,1,0.6,1,1.2
			c0,0.7-0.5,1.4-1.5,1.4h-2.4V266.3z M349.2,268.5h1.3c0.8,0,1.1-0.3,1.1-0.8c0-0.7-0.5-0.8-1.1-0.8h-1.3V268.5z M349.2,270.8h1.7
			c0.6,0,0.9-0.3,0.9-0.9c0-0.7-0.5-0.8-1.1-0.8h-1.5V270.8z"/>
		<path class="st7" d="M353.5,266.3h0.6v5h-0.6V266.3z"/>
		<path class="st7" d="M358.2,271.3h-0.6v-0.6h0c-0.3,0.4-0.7,0.7-1.2,0.7c-1,0-1.2-0.5-1.2-1.3v-2.4h0.6v2.5c0,0.4,0.3,0.7,0.7,0.7
			c0.7,0,1.1-0.5,1.1-1.1v-2h0.6V271.3z"/>
		<path class="st7" d="M362.4,270.2c-0.2,0.8-0.7,1.2-1.5,1.2c-1.2,0-1.7-0.8-1.7-1.9c0-1.1,0.7-1.9,1.7-1.9c1.3,0,1.7,1.2,1.6,2.1
			h-2.7c0,0.6,0.3,1.2,1.1,1.2c0.5,0,0.8-0.2,0.9-0.7H362.4z M361.8,269.2c0-0.6-0.4-1-1-1c-0.6,0-1,0.5-1,1H361.8z"/>
		<path class="st7" d="M363.4,267.7h0.6v0.5h0c0.3-0.4,0.7-0.6,1.2-0.6c0.4,0,0.8,0.2,1,0.6c0.2-0.4,0.7-0.6,1.1-0.6
			c0.7,0,1.2,0.3,1.2,1.1v2.7h-0.6V269c0-0.4-0.1-0.8-0.7-0.8c-0.6,0-0.9,0.4-0.9,0.9v2.3h-0.6V269c0-0.5-0.1-0.8-0.7-0.8
			c-0.7,0-1,0.6-1,0.9v2.3h-0.6V267.7z"/>
		<path class="st7" d="M370.2,267.1h-0.6v-0.7h0.6V267.1z M369.6,267.7h0.6v3.6h-0.6V267.7z"/>
		<path class="st7" d="M372.3,269.4l-1.3-1.7h0.8l0.9,1.3l0.9-1.3h0.7l-1.2,1.7l1.4,2h-0.8l-1-1.5l-1,1.5h-0.7L372.3,269.4z"/>
		<path class="st7" d="M377.2,266.3h0.7v4.4h2.6v0.6h-3.3V266.3z"/>
		<path class="st7" d="M383,267.6c1.1,0,1.8,0.8,1.8,1.9c0,1.1-0.6,1.9-1.8,1.9c-1.1,0-1.8-0.8-1.8-1.9
			C381.2,268.5,381.8,267.6,383,267.6z M383,270.9c0.6,0,1.1-0.5,1.1-1.4c0-0.9-0.5-1.4-1.1-1.4c-0.6,0-1.1,0.5-1.1,1.4
			C381.9,270.4,382.4,270.9,383,270.9z"/>
		<path class="st7" d="M388.2,268.9c-0.1-0.5-0.4-0.7-0.9-0.7c-0.9,0-1.1,0.7-1.1,1.4c0,0.7,0.3,1.3,1.1,1.3c0.6,0,0.9-0.3,1-0.9
			h0.6c-0.1,0.9-0.7,1.4-1.6,1.4c-1.1,0-1.7-0.8-1.7-1.8s0.6-1.9,1.7-1.9c0.8,0,1.5,0.4,1.6,1.2H388.2z"/>
		<path class="st7" d="M393,271.3c-0.1,0.1-0.3,0.1-0.4,0.1c-0.3,0-0.5-0.2-0.5-0.6c-0.3,0.4-0.8,0.6-1.3,0.6c-0.7,0-1.2-0.3-1.2-1
			c0-0.8,0.6-1,1.2-1.1c0.7-0.1,1.2-0.1,1.2-0.5c0-0.5-0.4-0.6-0.8-0.6c-0.5,0-0.9,0.2-0.9,0.7h-0.6c0-0.9,0.7-1.2,1.5-1.2
			c0.7,0,1.4,0.1,1.4,1v1.9c0,0.3,0,0.4,0.2,0.4c0.1,0,0.1,0,0.2,0V271.3z M392,269.5c-0.5,0.3-1.8,0-1.8,0.9c0,0.4,0.3,0.5,0.7,0.5
			c0.8,0,1.1-0.5,1.1-0.8V269.5z"/>
		<path class="st7" d="M393.9,266.3h0.6v5h-0.6V266.3z"/>
	</g>
</g>
<path class="st7" d="M347.7,356.8h0.7v5h-0.7V356.8z"/>
<path class="st7" d="M349.6,358.2h0.6v0.6h0c0.3-0.4,0.7-0.7,1.2-0.7c1,0,1.2,0.5,1.2,1.3v2.4H352v-2.5c0-0.4-0.3-0.7-0.7-0.7
	c-0.7,0-1.1,0.5-1.1,1.1v2h-0.6V358.2z"/>
<path class="st7" d="M356.2,359.3c-0.1-0.5-0.4-0.7-0.9-0.7c-0.9,0-1.1,0.7-1.1,1.4c0,0.7,0.3,1.3,1.1,1.3c0.6,0,0.9-0.3,1-0.9h0.6
	c-0.1,0.9-0.7,1.4-1.6,1.4c-1.1,0-1.7-0.8-1.7-1.8c0-1.1,0.6-1.9,1.7-1.9c0.8,0,1.5,0.4,1.6,1.2H356.2z"/>
<path class="st7" d="M360.8,360.6c-0.2,0.8-0.7,1.2-1.5,1.2c-1.2,0-1.7-0.8-1.7-1.9c0-1.1,0.7-1.9,1.7-1.9c1.3,0,1.7,1.2,1.6,2.1
	h-2.7c0,0.6,0.3,1.2,1.1,1.2c0.5,0,0.8-0.2,0.9-0.7H360.8z M360.3,359.6c0-0.6-0.4-1-1-1c-0.6,0-1,0.5-1,1H360.3z"/>
<path class="st7" d="M361.8,358.2h0.6v0.5h0c0.2-0.4,0.7-0.6,1.2-0.6c1.1,0,1.7,0.9,1.7,1.9c0,1-0.5,1.9-1.7,1.9
	c-0.4,0-0.9-0.1-1.2-0.6h0v1.9h-0.6V358.2z M363.5,358.6c-0.8,0-1.1,0.7-1.1,1.4c0,0.7,0.3,1.4,1.1,1.4c0.8,0,1.1-0.7,1.1-1.4
	C364.6,359.3,364.3,358.6,363.5,358.6z"/>
<path class="st7" d="M367,358.2h0.7v0.5H367v2.2c0,0.3,0.1,0.3,0.4,0.3h0.3v0.5h-0.5c-0.6,0-0.9-0.1-0.9-0.8v-2.3h-0.6v-0.5h0.6
	v-1.1h0.6V358.2z"/>
<path class="st7" d="M369.3,357.5h-0.6v-0.7h0.6V357.5z M368.7,358.2h0.6v3.6h-0.6V358.2z"/>
<path class="st7" d="M372,358.1c1.1,0,1.8,0.8,1.8,1.9c0,1.1-0.6,1.9-1.8,1.9c-1.1,0-1.8-0.8-1.8-1.9
	C370.2,358.9,370.8,358.1,372,358.1z M372,361.4c0.6,0,1.1-0.5,1.1-1.4c0-0.9-0.5-1.4-1.1-1.4c-0.6,0-1.1,0.5-1.1,1.4
	C370.8,360.9,371.3,361.4,372,361.4z"/>
<path class="st7" d="M374.7,358.2h0.6v0.6h0c0.3-0.4,0.7-0.7,1.2-0.7c1,0,1.2,0.5,1.2,1.3v2.4h-0.6v-2.5c0-0.4-0.3-0.7-0.7-0.7
	c-0.7,0-1.1,0.5-1.1,1.1v2h-0.6V358.2z"/>
<path class="st7" d="M382.9,361.8h-0.8l-1.8-5h0.7l1.4,4.3h0l1.4-4.3h0.7L382.9,361.8z"/>
<path class="st7" d="M385.5,356.8h0.9l1.6,4.2l1.6-4.2h0.9v5h-0.6v-4.2h0l-1.6,4.2h-0.6l-1.6-4.2h0v4.2h-0.6V356.8z"/>
<g>
	<polygon class="st5" points="6.7,202.6 0.6,206.4 0.6,215.8 5.2,215.8 5.2,211.5 8.1,211.5 8.1,215.8 12.8,215.8 12.8,206.4 	"/>
	<g>
		<g>
			<path class="st5" d="M20.6,211.7c-0.1-0.7-0.7-1.1-1.4-1.1c-1.2,0-1.7,1-1.7,2c0,1.1,0.5,2.1,1.7,2.1c0.9,0,1.4-0.6,1.4-1.4h0.7
				c-0.1,1.3-0.9,2-2.2,2c-1.5,0-2.3-1.1-2.3-2.6s0.8-2.6,2.4-2.6c1,0,1.9,0.6,2.1,1.6H20.6z"/>
			<path class="st5" d="M25.2,215.2h-0.6v-0.6h0c-0.3,0.4-0.7,0.7-1.2,0.7c-1,0-1.2-0.5-1.2-1.3v-2.4h0.6v2.5c0,0.4,0.3,0.7,0.7,0.7
				c0.7,0,1.1-0.5,1.1-1.1v-2h0.6V215.2z"/>
			<path class="st5" d="M26.7,214.1c0,0.5,0.5,0.7,1,0.7c0.4,0,0.9-0.1,0.9-0.5c0-0.9-2.4-0.3-2.4-1.7c0-0.7,0.7-1,1.4-1
				c0.8,0,1.4,0.3,1.5,1.1h-0.6c0-0.5-0.5-0.6-0.8-0.6c-0.4,0-0.8,0.1-0.8,0.5c0,0.4,0.6,0.5,1.2,0.6c0.6,0.1,1.2,0.3,1.2,1
				c0,0.9-0.8,1.1-1.5,1.1c-0.8,0-1.5-0.3-1.5-1.2H26.7z"/>
			<path class="st5" d="M31,211.6h0.7v0.5H31v2.2c0,0.3,0.1,0.3,0.4,0.3h0.3v0.5h-0.5c-0.6,0-0.9-0.1-0.9-0.8v-2.3h-0.6v-0.5h0.6
				v-1.1H31V211.6z"/>
			<path class="st5" d="M34,211.5c1.1,0,1.8,0.8,1.8,1.9c0,1.1-0.6,1.9-1.8,1.9s-1.8-0.8-1.8-1.9C32.2,212.3,32.8,211.5,34,211.5z
				 M34,214.8c0.6,0,1.1-0.5,1.1-1.4c0-0.9-0.5-1.4-1.1-1.4s-1.1,0.5-1.1,1.4C32.9,214.3,33.4,214.8,34,214.8z"/>
			<path class="st5" d="M36.7,211.6h0.6v0.5h0c0.3-0.4,0.7-0.6,1.2-0.6c0.4,0,0.8,0.2,1,0.6c0.2-0.4,0.7-0.6,1.1-0.6
				c0.7,0,1.2,0.3,1.2,1.1v2.7h-0.6v-2.4c0-0.4-0.1-0.8-0.7-0.8c-0.6,0-0.9,0.4-0.9,0.9v2.3h-0.6v-2.4c0-0.5-0.1-0.8-0.7-0.8
				c-0.7,0-1,0.6-1,0.9v2.3h-0.6V211.6z"/>
			<path class="st5" d="M46,214.1c-0.2,0.8-0.7,1.2-1.5,1.2c-1.2,0-1.7-0.8-1.7-1.9c0-1.1,0.7-1.9,1.7-1.9c1.3,0,1.7,1.2,1.6,2.1
				h-2.7c0,0.6,0.3,1.2,1.1,1.2c0.5,0,0.8-0.2,0.9-0.7H46z M45.4,213.1c0-0.6-0.4-1-1-1c-0.6,0-1,0.5-1,1H45.4z"/>
			<path class="st5" d="M47,211.6h0.6v0.8h0c0.3-0.6,0.7-0.9,1.3-0.8v0.6c-1,0-1.3,0.5-1.3,1.5v1.6H47V211.6z"/>
			<path class="st5" d="M51.7,210.2h0.7l2.6,4.1h0v-4.1h0.6v5h-0.7l-2.6-4h0v4h-0.6V210.2z"/>
			<path class="st5" d="M60,214.1c-0.2,0.8-0.7,1.2-1.5,1.2c-1.2,0-1.7-0.8-1.7-1.9c0-1.1,0.7-1.9,1.7-1.9c1.3,0,1.7,1.2,1.6,2.1
				h-2.7c0,0.6,0.3,1.2,1.1,1.2c0.5,0,0.8-0.2,0.9-0.7H60z M59.4,213.1c0-0.6-0.4-1-1-1c-0.6,0-1,0.5-1,1H59.4z"/>
			<path class="st5" d="M61.8,211.6h0.7v0.5h-0.7v2.2c0,0.3,0.1,0.3,0.4,0.3h0.3v0.5H62c-0.6,0-0.9-0.1-0.9-0.8v-2.3h-0.6v-0.5h0.6
				v-1.1h0.6V211.6z"/>
			<path class="st5" d="M67.2,215.2h-0.6l-0.7-2.9h0l-0.7,2.9h-0.6l-1.2-3.6h0.7l0.8,3h0l0.7-3h0.7l0.8,3h0l0.8-3h0.6L67.2,215.2z"
				/>
			<path class="st5" d="M70.5,211.5c1.1,0,1.8,0.8,1.8,1.9c0,1.1-0.6,1.9-1.8,1.9s-1.8-0.8-1.8-1.9
				C68.8,212.3,69.4,211.5,70.5,211.5z M70.5,214.8c0.6,0,1.1-0.5,1.1-1.4c0-0.9-0.5-1.4-1.1-1.4s-1.1,0.5-1.1,1.4
				C69.4,214.3,69.9,214.8,70.5,214.8z"/>
			<path class="st5" d="M73.2,211.6h0.6v0.8h0c0.3-0.6,0.7-0.9,1.3-0.8v0.6c-1,0-1.3,0.5-1.3,1.5v1.6h-0.6V211.6z"/>
			<path class="st5" d="M76.1,210.2h0.6v3l1.7-1.6h0.8l-1.4,1.3l1.5,2.3h-0.8l-1.2-1.9l-0.6,0.5v1.4h-0.6V210.2z"/>
		</g>
	</g>
</g>
<g>
	<path class="st1" d="M15.1,156.4C15.1,156.4,15.1,156.4,15.1,156.4c0-2.6-2.1-4.7-4.7-4.7c-2.6,0-4.7,2.1-4.7,4.7H4.2
		c-2,0-3.6,1.6-3.6,3.6l0,0c0,2,1.6,3.6,3.6,3.6h10.5c2,0,3.6-1.6,3.6-3.6l0,0C18.3,158.2,16.9,156.7,15.1,156.4z"/>
	<g>
		<g>
			<path class="st1" d="M22.2,158.9h0.7v5h-0.7V158.9z"/>
			<path class="st1" d="M24.2,158.9H26c0.4,0,1,0,1.3,0.2c0.3,0.2,0.6,0.5,0.6,1c0,0.5-0.3,0.9-0.7,1.1v0c0.6,0.1,1,0.6,1,1.2
				c0,0.7-0.5,1.4-1.5,1.4h-2.4V158.9z M24.8,161h1.3c0.8,0,1.1-0.3,1.1-0.8c0-0.7-0.5-0.8-1.1-0.8h-1.3V161z M24.8,163.3h1.7
				c0.6,0,0.9-0.3,0.9-0.9c0-0.7-0.5-0.8-1.1-0.8h-1.5V163.3z"/>
			<path class="st1" d="M29.2,158.9h0.9l1.6,4.2l1.6-4.2h0.9v5h-0.6v-4.2h0l-1.6,4.2h-0.6l-1.6-4.2h0v4.2h-0.6V158.9z"/>
			<path class="st1" d="M41,160.4c-0.1-0.7-0.7-1.1-1.4-1.1c-1.2,0-1.7,1-1.7,2c0,1.1,0.5,2.1,1.7,2.1c0.9,0,1.4-0.6,1.4-1.4h0.7
				c-0.1,1.3-0.9,2-2.2,2c-1.5,0-2.3-1.1-2.3-2.6c0-1.5,0.8-2.6,2.4-2.6c1,0,1.9,0.6,2.1,1.6H41z"/>
			<path class="st1" d="M42.6,158.9h0.6v5h-0.6V158.9z"/>
			<path class="st1" d="M45.9,160.2c1.1,0,1.8,0.8,1.8,1.9c0,1.1-0.6,1.9-1.8,1.9s-1.8-0.8-1.8-1.9C44.2,161,44.8,160.2,45.9,160.2z
				 M45.9,163.4c0.6,0,1.1-0.5,1.1-1.4s-0.5-1.4-1.1-1.4s-1.1,0.5-1.1,1.4S45.3,163.4,45.9,163.4z"/>
			<path class="st1" d="M51.6,163.9h-0.6v-0.6h0c-0.3,0.4-0.7,0.7-1.2,0.7c-1,0-1.2-0.5-1.2-1.3v-2.4h0.6v2.5c0,0.4,0.3,0.7,0.7,0.7
				c0.7,0,1.1-0.5,1.1-1.1v-2h0.6V163.9z"/>
			<path class="st1" d="M56,163.9h-0.6v-0.5h0c-0.2,0.4-0.7,0.6-1.2,0.6c-1.1,0-1.7-0.9-1.7-1.9c0-1,0.5-1.9,1.7-1.9
				c0.4,0,0.9,0.1,1.2,0.6h0v-1.9H56V163.9z M54.3,163.4c0.8,0,1.1-0.7,1.1-1.4c0-0.7-0.3-1.4-1.1-1.4c-0.8,0-1.1,0.7-1.1,1.4
				C53.2,162.8,53.5,163.4,54.3,163.4z"/>
		</g>
	</g>
</g>
<path class="st5" d="M207,323.8"/>
<path class="st5" d="M220.8,305.8"/>
<polygon class="st5" points="233.6,313.8 216.1,313.8 216.1,293.3 222.7,291.6 "/>
<path class="st5" d="M223.4,291.6l10.7,22.1v-20.1L223.4,291.6z"/>
<polygon class="st4" points="226.9,294.8 227.2,295.5 233,296.7 233,296 "/>
<polygon class="st4" points="227.6,297 227.9,297.7 233,298.6 233,297.9 "/>
<path class="st5" d="M265.3,305.8"/>
<polygon class="st5" points="277.9,313.8 261.1,313.8 261.1,293.3 267.4,291.6 "/>
<path class="st5" d="M268.4,291.6l10.7,22.1v-20.1L268.4,291.6z"/>
<polygon class="st4" points="271.4,294.8 271.7,295.5 277.5,296.7 277.5,296 "/>
<polygon class="st4" points="272.1,297 272.4,297.7 277.5,298.6 277.5,297.9 "/>
<path class="st5" d="M299.5,305.8"/>
<polygon class="st5" points="312.3,313.8 295.1,313.8 295.1,293.3 301.6,291.6 "/>
<path class="st5" d="M302.4,291.6l10.7,22.1v-20.1L302.4,291.6z"/>
<polygon class="st4" points="305.5,294.8 305.9,295.5 311.6,296.7 311.6,296 "/>
<polygon class="st4" points="306.3,297 306.6,297.7 311.6,298.6 311.6,297.9 "/>
<path class="st5" d="M265.7,338.8"/>
<polygon class="st5" points="278.1,346.8 261.1,346.8 261.1,326.3 267.5,324.6 "/>
<path class="st5" d="M268.4,324.6l10.7,22.1v-20.1L268.4,324.6z"/>
<polygon class="st4" points="271.8,327.8 272.1,328.5 277.9,329.7 277.9,329 "/>
<polygon class="st4" points="272.5,330 272.8,330.7 277.9,331.6 277.9,330.9 "/>
<path class="st5" d="M299.4,338.8"/>
<polygon class="st5" points="312.1,346.8 295.1,346.8 295.1,326.3 301.5,324.6 "/>
<path class="st5" d="M302.4,324.6l10.7,22.1v-20.1L302.4,324.6z"/>
<polygon class="st4" points="305.5,327.8 305.8,328.5 311.6,329.7 311.6,329 "/>
<polygon class="st4" points="306.2,330 306.5,330.7 311.6,331.6 311.6,330.9 "/>
<path class="st5" d="M355.1,324.5"/>
<polygon class="st5" points="390.4,346.8 343.1,346.8 343.1,289.7 360.9,285 "/>
<path class="st5" d="M363.3,285l29.8,61.5v-56L363.3,285z"/>
<polygon class="st4" points="372,294.1 372.8,296 388.9,299.3 388.9,297.4 "/>
<polygon class="st4" points="374,300 374.8,301.9 388.9,304.4 388.9,302.6 "/>
<path class="st5" d="M147,330.2c0,1.3-4.3,2.3-9.2,2.3c-4.9,0-8.9-1-8.9-2.3c0-1.3,4-2.3,8.9-2.3C142.8,327.8,147,328.9,147,330.2z"
	/>
<path class="st5" d="M147.5,344.7v-13.1c-1,0.7-4.1,1.8-9.5,1.8c-6.4,0-9.5-1.8-9.5-1.8v13.1l0,0c0,1.1,4.3,2.1,9.5,2.1
	C143.2,346.8,147.5,345.9,147.5,344.7L147.5,344.7z"/>
<path class="st5" d="M132.3,305.8"/>
<polygon class="st5" points="145.1,313.8 128.1,313.8 128.1,293.3 134.5,291.6 "/>
<path class="st5" d="M135.4,291.6l10.7,22.1v-20.1L135.4,291.6z"/>
<polygon class="st4" points="138.4,294.8 138.7,295.5 144.5,296.7 144.5,296 "/>
<polygon class="st4" points="139.1,297 139.4,297.7 144.5,298.6 144.5,297.9 "/>
<path class="st5" d="M220.7,338.8"/>
<polygon class="st5" points="232.8,346.8 216.1,346.8 216.1,326.3 222.3,324.6 "/>
<path class="st5" d="M223.4,324.6l10.7,22.1v-20.1L223.4,324.6z"/>
<polygon class="st4" points="226.8,327.8 227.1,328.5 232.9,329.7 232.9,329 "/>
<polygon class="st4" points="227.5,330 227.8,330.7 232.9,331.6 232.9,330.9 "/>
<path class="st5" d="M176.6,305.8"/>
<polygon class="st5" points="189.3,313.8 172.1,313.8 172.1,293.3 178.6,291.6 "/>
<path class="st5" d="M179.4,291.6l10.7,22.1v-20.1L179.4,291.6z"/>
<polygon class="st4" points="182.6,294.8 182.9,295.5 188.7,296.7 188.7,296 "/>
<polygon class="st4" points="183.4,297 183.7,297.7 188.7,298.6 188.7,297.9 "/>
<path class="st5" d="M176.7,338.8"/>
<polygon class="st5" points="189.1,346.8 172.1,346.8 172.1,326.3 178.5,324.6 "/>
<path class="st5" d="M179.4,324.6l10.7,22.1v-20.1L179.4,324.6z"/>
<polygon class="st4" points="182.8,327.8 183.1,328.5 188.9,329.7 188.9,329 "/>
<polygon class="st4" points="183.5,330 183.8,330.7 188.9,331.6 188.9,330.9 "/>
<line class="st2" x1="329.6" y1="281.8" x2="329.6" y2="282.8"/>
<line class="st10" x1="329.6" y1="286.8" x2="329.6" y2="295.8"/>
<line class="st11" x1="329.6" y1="296.8" x2="329.6" y2="359.8"/>
<line class="st2" x1="329.6" y1="361.8" x2="329.6" y2="362.8"/>
<g>
	<path class="st12" d="M292.6,105.3h2.4c0.9,0,1.5,0.5,1.5,1.3c0,0.6-0.3,1.1-0.9,1.3v0c0.6,0.1,0.7,0.5,0.8,1c0,0.5,0,1,0.3,1.4
		H296c-0.2-0.2-0.1-0.7-0.2-1.2c-0.1-0.5-0.2-0.9-0.8-0.9h-1.6v2.1h-0.7V105.3z M294.7,107.6c0.6,0,1.2-0.2,1.2-0.9
		c0-0.5-0.3-0.9-0.9-0.9h-1.7v1.7H294.7z"/>
	<path class="st12" d="M300.5,109.2c-0.2,0.8-0.7,1.2-1.5,1.2c-1.2,0-1.7-0.8-1.7-1.9c0-1.1,0.7-1.9,1.7-1.9c1.3,0,1.7,1.2,1.6,2.1
		h-2.7c0,0.6,0.3,1.2,1.1,1.2c0.5,0,0.8-0.2,0.9-0.7H300.5z M299.9,108.2c0-0.6-0.4-1-1-1c-0.6,0-1,0.5-1,1H299.9z"/>
	<path class="st12" d="M301.3,105.3h0.6v5h-0.6V105.3z"/>
	<path class="st12" d="M306.1,110.3c-0.1,0.1-0.3,0.1-0.4,0.1c-0.3,0-0.5-0.2-0.5-0.6c-0.3,0.4-0.8,0.6-1.3,0.6
		c-0.7,0-1.2-0.3-1.2-1c0-0.8,0.6-1,1.2-1.1c0.7-0.1,1.2-0.1,1.2-0.5c0-0.5-0.4-0.6-0.8-0.6c-0.5,0-0.9,0.2-0.9,0.7h-0.6
		c0-0.9,0.7-1.2,1.5-1.2c0.7,0,1.4,0.1,1.4,1v1.9c0,0.3,0,0.4,0.2,0.4c0.1,0,0.1,0,0.2,0V110.3z M305.1,108.5
		c-0.5,0.3-1.8,0-1.8,0.9c0,0.4,0.3,0.5,0.7,0.5c0.8,0,1.1-0.5,1.1-0.8V108.5z"/>
	<path class="st12" d="M308.1,110.8c-0.3,0.7-0.5,1-1.1,1c-0.1,0-0.3,0-0.4-0.1v-0.5c0.1,0,0.2,0.1,0.3,0.1c0.2,0,0.4-0.1,0.5-0.3
		l0.2-0.6l-1.4-3.6h0.7l1.1,3h0l1-3h0.6L308.1,110.8z"/>
</g>
<path class="st7" d="M337.4,272.5h2.9c0.1,0,0.1,0,0.1-0.1l1.4-2.4c0,0,0,0,0-0.1c0,0,0-0.1,0-0.1l-1.4-2.4l1.4-2.4c0,0,0,0,0-0.1
	c0,0,0-0.1,0-0.1l-1.4-2.4c0,0-0.1-0.1-0.1-0.1h-2.9c-0.1,0-0.1,0-0.1,0.1l-1.4,2.4h-2.8c-0.1,0-0.1,0-0.1,0.1l-1.4,2.4
	c0,0,0,0.1,0,0.2l1.4,2.4c0,0,0.1,0.1,0.1,0.1h2.8l1.4,2.4C337.3,272.5,337.4,272.5,337.4,272.5z M340,267.3h-2.5l0-0.1l-1.2-2.1
	h2.5L340,267.3z M336,269.6l-1.3-2.1l1.3-2.1l1.3,2.1L336,269.6z M340,267.6l-1.3,2.1h-2.5l1.2-2.1l0-0.1H340z M333.2,265.2h2.5
	l-1.3,2.2c0,0,0,0.1,0,0.2l1.3,2.2h-2.5l-1.3-2.3L333.2,265.2z M340.3,267.2L339,265c0,0-0.1-0.1-0.1-0.1h-2.6l1.3-2.1h2.7l1.3,2.3
	L340.3,267.2z M337.5,272.2l-1.3-2.1h2.6c0.1,0,0.1,0,0.1-0.1l1.3-2.2l1.3,2.1l-1.3,2.3H337.5z"/>
<polygon class="st2" points="180.2,232 190.2,245.9 420.4,245.9 420.4,466.6 87.5,466.6 87.5,232 "/>
<g>
	<g>
		<g>
			<polygon class="st0" points="332.3,85.4 273.4,85.4 273.4,42.3 302.8,25.9 332.3,42.3 			"/>
			<g>
				<rect x="291.6" y="48.1" class="st13" width="22.4" height="24"/>
			</g>
			<line class="st0" x1="291.6" y1="72.1" x2="273.4" y2="85.4"/>
			<line class="st0" x1="314.1" y1="72.1" x2="332.3" y2="85.4"/>
		</g>
		<g>
			<g>
				<path class="st13" d="M296.3,59.6c0,1.3,0.3,2.5,1.1,3.7c2,2.9,5.9,3.6,8.8,1.6c1.1-0.8,1.9-1.9,2.4-3.1"/>
				<path class="st13" d="M308.9,59.9c0-1.3-0.3-2.6-1.1-3.8c-2-2.9-5.9-3.6-8.8-1.6c-1.2,0.8-2,1.9-2.4,3.2"/>
			</g>
			<polyline class="st13" points="306.4,58 309,59.7 310.8,57.1 			"/>
			<polyline class="st13" points="298.8,61.3 296.1,59.6 294.4,62.3 			"/>
		</g>
	</g>
</g>
<g>
	<line class="st6" x1="263.4" y1="185.7" x2="259.8" y2="191.4"/>
</g>
<g>
	<line class="st6" x1="258.5" y1="185.7" x2="254.9" y2="191.4"/>
</g>
<g>
	<line class="st6" x1="253.6" y1="185.7" x2="250" y2="191.4"/>
</g>
<g>
	<line class="st6" x1="248.7" y1="185.7" x2="245.1" y2="191.4"/>
</g>
<g>
	<line class="st6" x1="243.9" y1="185.7" x2="240.3" y2="191.4"/>
</g>
<g>
	<line class="st6" x1="239" y1="185.7" x2="235.4" y2="191.4"/>
</g>
<g>
	<line class="st6" x1="234.1" y1="185.7" x2="230.5" y2="191.4"/>
</g>
<g>
	<line class="st6" x1="229.2" y1="185.7" x2="225.6" y2="191.4"/>
</g>
<g>
	<line class="st6" x1="224.4" y1="185.7" x2="220.8" y2="191.4"/>
</g>
<g>
	<line class="st6" x1="219.5" y1="185.7" x2="215.9" y2="191.4"/>
</g>
<g>
	<line class="st6" x1="214.6" y1="185.7" x2="211" y2="191.4"/>
</g>
<g>
	<line class="st6" x1="209.7" y1="185.7" x2="206.1" y2="191.4"/>
</g>
<g>
	<line class="st6" x1="204.9" y1="185.7" x2="201.3" y2="191.4"/>
</g>
<g>
	<line class="st6" x1="200" y1="185.7" x2="196.4" y2="191.4"/>
</g>
<g>
	<line class="st6" x1="195.1" y1="185.7" x2="191.5" y2="191.4"/>
</g>
<g>
	<line class="st6" x1="190.2" y1="185.7" x2="186.6" y2="191.4"/>
</g>
<g>
	<line class="st6" x1="185.4" y1="185.7" x2="181.8" y2="191.4"/>
</g>
<g>
	<line class="st6" x1="180.5" y1="185.7" x2="176.9" y2="191.4"/>
</g>
<g>
	<line class="st6" x1="175.6" y1="185.7" x2="172" y2="191.4"/>
</g>
<g>
	<line class="st6" x1="170.7" y1="185.7" x2="167.1" y2="191.4"/>
</g>
<g>
	<line class="st6" x1="287.4" y1="185.7" x2="283.8" y2="191.4"/>
</g>
<g>
	<line class="st6" x1="282.5" y1="185.7" x2="278.9" y2="191.4"/>
</g>
<g>
	<line class="st6" x1="277.6" y1="185.7" x2="274" y2="191.4"/>
</g>
<g>
	<line class="st6" x1="272.7" y1="185.7" x2="269.1" y2="191.4"/>
</g>
<g>
	<line class="st6" x1="267.9" y1="185.7" x2="264.3" y2="191.4"/>
</g>
</svg>
